    <svg width="400.00" height="600.00" stroke="black" fill="gray" fill-opacity="0.50">
      <path d="M 50.00 250.00C 4.08 360.87, 12.05 436.16, 50.00 550.00C 62.65 587.95, 113.23 565.76, 150.00 550.00C 186.77 534.24, 213.23 534.24, 250.00 550.00C 286.77 565.76, 337.35 587.95, 350.00 550.00C 387.95 436.16, 395.92 360.87, 350.00 250.00"/>
      <circle class="bezier-control" cx="95.92" cy="139.13" r="2.00"/>
      <circle class="bezier-control" cx="4.08" cy="360.87" r="2.00"/>
      <circle class="bezier-control" cx="12.05" cy="436.16" r="2.00"/>
      <circle class="bezier-control" cx="62.65" cy="587.95" r="2.00"/>
      <circle class="bezier-control" cx="113.23" cy="565.76" r="2.00"/>
      <circle class="bezier-control" cx="186.77" cy="534.24" r="2.00"/>
      <circle class="bezier-control" cx="213.23" cy="534.24" r="2.00"/>
      <circle class="bezier-control" cx="286.77" cy="565.76" r="2.00"/>
      <circle class="bezier-control" cx="337.35" cy="587.95" r="2.00"/>
      <circle class="bezier-control" cx="387.95" cy="436.16" r="2.00"/>
      <circle class="bezier-control" cx="395.92" cy="360.87" r="2.00"/>
      <circle class="bezier-control" cx="304.08" cy="139.13" r="2.00"/>
      <line class="bezier-control" x1="95.92" y1="139.13" x2="50.00" y2="250.00"/>
      <line class="bezier-control" x1="4.08" y1="360.87" x2="50.00" y2="250.00"/>
      <line class="bezier-control" x1="12.05" y1="436.16" x2="50.00" y2="550.00"/>
      <line class="bezier-control" x1="62.65" y1="587.95" x2="50.00" y2="550.00"/>
      <line class="bezier-control" x1="113.23" y1="565.76" x2="150.00" y2="550.00"/>
      <line class="bezier-control" x1="186.77" y1="534.24" x2="150.00" y2="550.00"/>
      <line class="bezier-control" x1="213.23" y1="534.24" x2="250.00" y2="550.00"/>
      <line class="bezier-control" x1="286.77" y1="565.76" x2="250.00" y2="550.00"/>
      <line class="bezier-control" x1="337.35" y1="587.95" x2="350.00" y2="550.00"/>
      <line class="bezier-control" x1="387.95" y1="436.16" x2="350.00" y2="550.00"/>
      <line class="bezier-control" x1="395.92" y1="360.87" x2="350.00" y2="250.00"/>
      <line class="bezier-control" x1="304.08" y1="139.13" x2="350.00" y2="250.00"/>
      <circle s="" class="on-line-point" fill="black" cx="50.00" cy="250.00" r="5.00"/>
      <circle s="" class="on-line-point" fill="black" cx="50.00" cy="550.00" r="5.00"/>
      <circle s="" class="on-line-point" fill="black" cx="150.00" cy="550.00" r="5.00"/>
      <circle s="" class="on-line-point" fill="black" cx="250.00" cy="550.00" r="5.00"/>
      <circle s="" class="on-line-point" fill="black" cx="350.00" cy="550.00" r="5.00"/>
      <circle s="" class="on-line-point" fill="black" cx="350.00" cy="250.00" r="5.00"/>
    </svg>
