    <svg width="450.00" height="850.00" stroke="black" fill="gray" fill-opacity="0.50" display="block" xmlns="http://www.w3.org/2000/svg">
      <path class="open" fill="none" stroke-width="4" stroke="gray" d="M 233.0 306.0C 230.3 288.7, 222.9 236.5, 222.0 219.0C 220.9 197.2, 222.2 131.8, 223.0 110.0"/>
      <path class="open" fill="none" stroke-width="4" stroke="gray" d="M 223.0 110.0C 220.1 106.5, 211.4 96.0, 208.0 93.0C 202.9 88.4, 186.8 75.7, 181.0 72.0C 177.6 69.8, 166.0 64.2, 162.0 65.0C 157.9 65.8, 144.6 69.2, 141.0 67.0C 133.6 62.5, 117.7 41.3, 113.0 34.0C 112.0 32.5, 113.5 26.7, 114.0 25.0"/>
      <path class="open" fill="none" stroke-width="4" stroke="gray" d="M 162.0 65.0C 161.9 62.2, 161.2 53.6, 160.0 51.0C 157.5 45.8, 146.6 32.1, 144.0 27.0C 142.4 23.8, 139.8 13.5, 139.0 10.0"/>
      <path class="open" fill="none" stroke-width="4" stroke="gray" d="M 181.0 72.0C 180.2 66.0, 180.4 47.4, 183.0 42.0C 184.7 38.5, 196.8 35.1, 200.0 33.0C 202.3 31.5, 205.5 23.2, 208.0 22.0C 210.7 20.7, 220.1 21.4, 223.0 22.0"/>
      <path class="open" fill="none" stroke-width="4" stroke="gray" d="M 223.0 110.0C 227.3 107.0, 240.3 98.2, 245.0 96.0C 251.7 92.8, 274.7 88.3, 280.0 83.0C 283.6 79.4, 283.6 63.1, 284.0 58.0C 284.3 53.9, 293.2 43.5, 297.0 42.0C 304.0 39.2, 326.5 34.8, 334.0 34.0C 337.4 33.6, 348.0 32.6, 351.0 31.0C 354.2 29.3, 361.7 20.9, 364.0 18.0"/>
      <path class="open" fill="none" stroke-width="4" stroke="gray" d="M 284.0 58.0C 281.4 52.4, 272.8 35.9, 269.0 31.0C 266.1 27.3, 254.8 18.7, 251.0 16.0"/>
      <path class="open" fill="none" stroke-width="4" stroke="gray" d="M 297.0 42.0C 303.0 41.9, 321.3 42.2, 327.0 44.0C 334.6 46.4, 355.4 58.6, 362.0 63.0"/>
      <path class="open" fill="none" stroke-width="4" stroke="gray" d="M 206.0 376.0C 200.8 375.7, 184.8 376.1, 180.0 378.0C 176.3 379.5, 167.3 388.3, 166.0 392.0C 163.7 398.6, 159.2 419.1, 158.0 426.0C 157.3 429.9, 152.6 441.0, 150.0 444.0C 145.8 448.9, 130.1 461.1, 124.0 463.0C 117.2 465.1, 95.7 465.6, 89.0 468.0C 78.5 471.7, 48.7 487.4, 39.0 493.0"/>
      <path class="open" fill="none" stroke-width="4" stroke="gray" d="M 150.0 444.0C 146.1 442.6, 134.1 438.5, 130.0 438.0C 120.9 436.9, 92.2 440.2, 84.0 436.0C 79.1 433.5, 75.5 415.5, 75.0 410.0"/>
      <path class="open" fill="none" stroke-width="4" stroke="gray" d="M 124.0 463.0C 121.3 470.3, 113.7 492.4, 112.0 500.0C 110.3 507.7, 107.7 531.2, 107.0 539.0"/>
      <path class="open" fill="none" stroke-width="4" stroke="gray" d="M 262.0 376.0C 263.8 379.9, 268.8 391.9, 270.0 396.0C 271.2 400.3, 273.4 413.6, 274.0 418.0C 274.5 421.7, 279.3 432.4, 282.0 435.0C 287.6 440.6, 306.7 455.2, 313.0 460.0C 318.2 464.0, 332.9 477.0, 337.0 482.0C 342.4 488.6, 356.5 510.4, 363.0 516.0C 366.9 519.4, 382.2 525.6, 385.0 530.0C 390.2 538.0, 399.0 565.7, 401.0 575.0"/>
      <path class="open" fill="none" stroke-width="4" stroke="gray" d="M 282.0 435.0C 290.0 430.2, 314.9 417.1, 324.0 415.0C 330.6 413.4, 351.5 415.1, 358.0 417.0C 363.6 418.7, 379.7 425.6, 385.0 428.0C 391.5 431.0, 410.6 440.7, 417.0 444.0"/>
      <path class="open" fill="none" stroke-width="4" stroke="gray" d="M 358.0 417.0C 362.6 413.5, 376.8 403.5, 382.0 401.0C 385.9 399.1, 398.7 395.9, 403.0 395.0"/>
      <path class="open" fill="none" stroke-width="4" stroke="gray" d="M 337.0 482.0C 335.2 487.3, 330.4 503.4, 330.0 509.0C 329.6 514.0, 331.4 529.2, 333.0 534.0C 334.4 538.1, 338.7 550.6, 339.0 555.0C 339.4 560.2, 334.3 575.9, 331.0 580.0C 327.1 585.0, 310.6 595.1, 305.0 598.0"/>
      <path class="open" fill="none" stroke-width="2" stroke="gray" d="M 230.0 381.0C 227.8 388.6, 222.5 412.1, 223.0 420.0C 223.4 426.2, 229.0 445.4, 234.0 449.0C 236.8 451.0, 236.2 462.6, 236.0 466.0C 234.2 492.1, 227.6 570.3, 223.0 596.0C 221.7 603.1, 210.2 625.6, 203.0 626.0C 196.7 626.3, 178.7 635.0, 175.0 640.0C 164.2 654.5, 139.3 703.1, 133.0 720.0"/>
      <path class="open" fill="none" stroke-width="2" stroke="gray" d="M 223.0 596.0C 227.5 603.4, 241.6 625.2, 247.0 632.0C 250.1 635.9, 261.9 645.1, 265.0 649.0C 270.3 655.7, 277.8 680.7, 280.0 689.0C 285.1 708.4, 297.4 767.3, 301.0 787.0"/>
      <path class="closed" stroke-width="1" d="M 235.0 306.0C 239.1 306.7, 245.6 318.6, 248.0 322.0C 250.5 325.6, 259.3 335.5, 262.0 339.0C 263.5 341.0, 267.2 347.6, 268.0 350.0C 268.6 351.7, 268.4 357.2, 268.0 359.0C 267.2 362.5, 263.8 372.9, 262.0 376.0C 261.2 377.4, 255.6 377.9, 254.0 378.0C 249.6 378.3, 236.4 380.3, 232.0 381.0C 231.0 381.2, 228.0 381.2, 227.0 381.0C 222.8 380.2, 210.1 377.4, 206.0 376.0C 204.1 375.3, 199.4 369.9, 200.0 368.0C 201.2 364.4, 207.9 355.1, 210.0 352.0C 211.6 349.6, 215.1 341.7, 216.0 339.0C 217.3 335.0, 221.3 322.9, 223.0 319.0 C 224.5 315.8, 231.5 305.4, 235.0 306.0"/>
      <path class="closed" stroke-width="1" d="M 239.0 336.0C 240.6 336.0, 244.3 339.6, 245.0 341.0C 245.9 342.8, 247.3 349.0, 247.0 351.0C 246.6 353.6, 243.5 361.9, 241.0 363.0C 239.0 363.8, 234.1 357.8, 233.0 356.0C 231.5 353.5, 228.1 344.8, 229.0 342.0 C 229.7 339.8, 236.7 336.0, 239.0 336.0"/>
    </svg>
